<svg width="23" height="20" viewBox="0 0 23 20" fill="none" xmlns="http://www.w3.org/2000/svg">
<path d="M12.2218 2.04296C12.2218 0.915399 13.1339 0.00109863 14.2588 0.00109863H2.03697C0.912111 0.00109863 0 0.915399 0 2.04296C0 3.17052 0.912111 4.08482 2.03697 4.08482H14.2588C13.1339 4.08482 12.2218 3.17052 12.2218 2.04296Z" fill="#66CCCC"/>
<path d="M12.9681 16.9368L6.8572 6.32703C7.41963 7.30372 7.08579 8.55266 6.11144 9.11644C5.13708 9.68022 3.89114 9.34558 3.3287 8.36889L9.43963 18.9786C10.0021 19.9553 11.248 20.29 12.2224 19.7262C13.1967 19.1624 13.5305 17.9135 12.9681 16.9368Z" fill="#6666CC"/>
<path d="M21.3897 0.273844C20.4154 -0.289937 19.1694 0.0447017 18.607 1.02139L12.4961 11.6311C13.0585 10.6544 14.3045 10.3198 15.2788 10.8836C16.2532 11.4474 16.587 12.6963 16.0246 13.673L22.1355 3.06325C22.6979 2.08656 22.3641 0.838759 21.3897 0.273844Z" fill="#FF6666"/>
<path d="M14.258 4.08421C15.383 4.08421 16.2949 3.17004 16.2949 2.04235C16.2949 0.914661 15.383 0.000488281 14.258 0.000488281C13.133 0.000488281 12.221 0.914661 12.221 2.04235C12.221 3.17004 13.133 4.08421 14.258 4.08421Z" fill="#FFCC00"/>
<path d="M5.09276 9.38939C6.21775 9.38939 7.12973 8.47521 7.12973 7.34753C7.12973 6.21984 6.21775 5.30566 5.09276 5.30566C3.96777 5.30566 3.05579 6.21984 3.05579 7.34753C3.05579 8.47521 3.96777 9.38939 5.09276 9.38939Z" fill="#FFCC00"/>
<path d="M14.258 14.6941C15.383 14.6941 16.2949 13.7799 16.2949 12.6522C16.2949 11.5245 15.383 10.6104 14.258 10.6104C13.133 10.6104 12.221 11.5245 12.221 12.6522C12.221 13.7799 13.133 14.6941 14.258 14.6941Z" fill="#FFCC00"/>
</svg>
